<?xml version="1.0" encoding="UTF-8" standalone="no"?><svg xmlns:dc="http://purl.org/dc/elements/1.1/" xmlns:cc="http://creativecommons.org/ns#" xmlns:rdf="http://www.w3.org/1999/02/22-rdf-syntax-ns#" xmlns:svg="http://www.w3.org/2000/svg" xmlns="http://www.w3.org/2000/svg" xmlns:sodipodi="http://sodipodi.sourceforge.net/DTD/sodipodi-0.dtd" xmlns:inkscape="http://www.inkscape.org/namespaces/inkscape" width="32" height="32" viewBox="0 0 32 32.000001" id="svg13527" version="1.1" inkscape:version="0.91 r13725" sodipodi:docname="cloud-mist-fog-frost-foggy-forecast-cloudy.svg"><sodipodi:namedview id="base" pagecolor="#ffffff" bordercolor="#666666" borderopacity="1.0" inkscape:pageopacity="0.0" inkscape:pageshadow="2" inkscape:zoom="7.33573" inkscape:cx="-9.868008" inkscape:cy="16.749511" inkscape:document-units="px" inkscape:current-layer="layer1" showgrid="true" inkscape:window-width="1366" inkscape:window-height="716" inkscape:window-x="-8" inkscape:window-y="-8" inkscape:window-maximized="1" units="px" inkscape:object-nodes="true" showguides="false"><inkscape:grid type="xygrid" id="grid13559" empspacing="4"/></sodipodi:namedview><g inkscape:label="Layer 1" inkscape:groupmode="layer" id="layer1" transform="translate(0,-1020.3622)"><g transform="translate(-924.37186,-466.6183)" id="g20350" fill="#464c63" color="#000" font-style="normal" font-variant="normal" font-weight="normal" font-stretch="normal" font-size="medium" font-family="sans-serif" letter-spacing="normal" word-spacing="normal" direction="ltr" writing-mode="lr-tb" text-anchor="start" white-space="normal" clip-rule="nonzero" visibility="visible" color-interpolation="sRGB" color-interpolation-filters="linearRGB" fill-opacity="1" stroke="none" stroke-linecap="round" stroke-linejoin="round" stroke-miterlimit="4" stroke-dasharray="none" stroke-dashoffset="0" stroke-opacity="1" color-rendering="auto" image-rendering="auto" shape-rendering="auto" text-rendering="auto"><g transform="matrix(0.9997053,0,0,0.99976233,28.516153,242.16741)" id="g20342" fill="#464c63" stroke-width="0.99999994" fill-rule="nonzero"><path style="line-height:normal;text-indent:0;text-align:start;text-decoration-line:none;text-decoration-style:solid;text-decoration-color:#000000;text-transform:none;isolation:auto;mix-blend-mode:normal" d="M912.264 1248.11c-2.588-.066-4.586 1.547-5.648 3.285-2.128-.599-3.848-.157-4.998.988a5.17 5.17 0 0 0-1.17 5.437c.7 1.887 2.434 3.182 4.417 3.286h1.352c.055.287.126.573.235.852.709 1.821 2.452 3.056 4.435 3.155H918.078a.498.498 0 0 0 .227-.055 6.23 6.23 0 0 0 5.744-5.244c.468-2.98-1.25-5.88-4.08-6.888-.58-.225-1.174-.289-1.637-.31-.197-.01-.394 0-.59.015-.569-1.897-1.94-3.49-3.835-4.194-.593-.2-1.085-.302-1.643-.326z" id="path20336" inkscape:connector-curvature="0" text-decoration="none" baseline-shift="baseline" display="inline" overflow="visible" opacity="1" solid-color="#000000" solid-opacity="1" fill="#3b3c3d"/><path style="line-height:normal;text-indent:0;text-align:start;text-decoration-line:none;text-decoration-style:solid;text-decoration-color:#000000;text-transform:none;isolation:auto;mix-blend-mode:normal" d="M912.233 1249.11h.008c.442.018.882.103 1.317.265 1.535.57 2.677 1.849 3.186 3.4-1.642.402-3.138 1.507-4.1 3.001-2.057-.659-3.848-.157-5.008.924-.001 0-.003 0-.004.01a4.852 4.852 0 0 0-1.493 3.398h-1.223c-1.58-.082-2.965-1.112-3.53-2.636a4.169 4.169 0 0 1 .94-4.381c.96-.958 2.287-1.322 4.357-.631a.501.501 0 0 0 .597-.233c.898-1.636 2.683-3.172 4.953-3.116z" id="path20338" inkscape:connector-curvature="0" text-decoration="none" baseline-shift="baseline" display="inline" overflow="visible" opacity="1" solid-color="#000000" solid-opacity="1" fill="#c4c9d3"/><path style="line-height:normal;text-indent:0;text-align:start;text-decoration-line:none;text-decoration-style:solid;text-decoration-color:#000000;text-transform:none;isolation:auto;mix-blend-mode:normal" d="M918.285 1253.614c.412.019.911.08 1.329.242.005 0 .009 0 .014.012a5.27 5.27 0 0 1 3.434 5.794 5.241 5.241 0 0 1-5.003 4.443c-.026 0-.053 0-.078.01h-7.05c-1.595-.082-2.985-1.073-3.547-2.518-.563-1.447-.196-3.073.94-4.161.961-.894 2.415-1.288 4.37-.585.226.075.509-.055.627-.261 1.04-1.847 3.075-3.057 4.965-2.968z" id="path20340" inkscape:connector-curvature="0" text-decoration="none" baseline-shift="baseline" display="inline" overflow="visible" opacity="1" solid-color="#000000" solid-opacity="1" fill="#e1e1e6"/></g><g id="g20348" transform="matrix(0.9997053,0,0,1,961.46718,463.61868)" fill="#3b3c3d" stroke-width="1.00014734px" fill-rule="evenodd"><path inkscape:connector-curvature="0" id="path20344" d="M-29.098 1047.363c-.364 0-.728.123-1.025.371l-.588.489c-.186.155-.585.155-.771 0l-.293-.244-.5-.417a.5.5 0 1 0-.641.768l.5.416.293.244a1.603 1.603 0 0 0 2.053 0l.586-.488a.5.5 0 0 0 .002 0c.186-.156.585-.156.771 0l.586.488a1.603 1.603 0 0 0 2.053 0l.588-.488c.186-.156.585-.156.771 0l.586.488a1.603 1.603 0 0 0 2.053 0l.588-.488c.186-.156.585-.156.771 0l.586.488a1.603 1.603 0 0 0 2.053 0l.588-.488c.186-.156.585-.156.771 0l.586.488a1.603 1.603 0 0 0 2.053 0l.588-.488c.186-.156.585-.156.771 0l.586.488a1.603 1.603 0 0 0 2.053 0l.295-.244.498-.416a.5.5 0 1 0-.64-.768l-.499.417-.295.244c-.187.154-.585.155-.771 0l-.586-.489a1.603 1.603 0 0 0-2.053 0l-.588.489c-.186.155-.585.155-.771 0l-.586-.489a1.603 1.603 0 0 0-2.053 0l-.588.489c-.186.155-.585.155-.771 0l-.586-.489a1.603 1.603 0 0 0-2.053 0l-.588.489c-.186.155-.585.155-.771 0l-.586-.489a1.603 1.603 0 0 0-2.053 0l-.588.489c-.186.155-.585.155-.771 0l-.586-.489a1.6 1.6 0 0 0-1.028-.37z" style="line-height:normal;text-indent:0;text-align:start;text-decoration-line:none;text-decoration-style:solid;text-decoration-color:#000000;text-transform:none;isolation:auto;mix-blend-mode:normal" text-decoration="none" baseline-shift="baseline" display="inline" overflow="visible" opacity="1" solid-color="#000000" solid-opacity="1"/><path inkscape:connector-curvature="0" id="path20346" d="M-29.098 1050.361c-.364 0-.728.125-1.025.373l-.588.489c-.186.155-.585.155-.771 0l-.293-.244-.5-.419a.5.5 0 1 0-.641.77l.5.416.293.244a1.603 1.603 0 0 0 2.053 0l.586-.488a.5.5 0 0 0 .002 0c.186-.156.585-.156.771 0l.586.488a1.603 1.603 0 0 0 2.053 0l.588-.488c.186-.156.585-.156.771 0l.586.488a1.603 1.603 0 0 0 2.053 0l.588-.488c.186-.156.585-.156.771 0l.586.488a1.603 1.603 0 0 0 2.053 0l.588-.488c.186-.156.585-.156.771 0l.586.488a1.603 1.603 0 0 0 2.053 0l.588-.488c.186-.156.585-.156.771 0l.586.488a1.603 1.603 0 0 0 2.053 0l.295-.244.498-.416a.5.5 0 1 0-.64-.77l-.499.419-.295.244c-.187.154-.585.155-.771 0l-.586-.489a1.603 1.603 0 0 0-2.053 0l-.588.489c-.186.155-.585.155-.771 0l-.586-.489a1.603 1.603 0 0 0-2.053 0l-.588.489c-.186.155-.585.155-.771 0l-.586-.489a1.603 1.603 0 0 0-2.053 0l-.588.489c-.186.155-.585.155-.771 0l-.586-.489a1.603 1.603 0 0 0-2.053 0l-.588.489c-.186.155-.585.155-.771 0l-.586-.489a1.603 1.603 0 0 0-1.028-.373z" style="line-height:normal;text-indent:0;text-align:start;text-decoration-line:none;text-decoration-style:solid;text-decoration-color:#000000;text-transform:none;isolation:auto;mix-blend-mode:normal" text-decoration="none" baseline-shift="baseline" display="inline" overflow="visible" opacity="1" solid-color="#000000" solid-opacity="1"/></g></g></g><metadata><rdf:RDF xmlns:rdf="http://www.w3.org/1999/02/22-rdf-syntax-ns#" xmlns:rdfs="http://www.w3.org/2000/01/rdf-schema#" xmlns:dc="http://purl.org/dc/elements/1.1/"><rdf:Description about="https://iconscout.com/legal#licenses" dc:title="cloud,mist,fog,frost,foggy,forecast,cloudy" dc:description="cloud,mist,fog,frost,foggy,forecast,cloudy" dc:publisher="Iconscout" dc:date="2017-09-19" dc:format="image/svg+xml" dc:language="en"><dc:creator><rdf:Bag><rdf:li>Vignesh Oviyan</rdf:li></rdf:Bag></dc:creator></rdf:Description></rdf:RDF></metadata></svg>